<svg xmlns="http://www.w3.org/2000/svg" xmlns:xlink="http://www.w3.org/1999/xlink" width="500" zoomAndPan="magnify" viewBox="0 0 375 374.999991" height="500" preserveAspectRatio="xMidYMid meet" version="1.0"><defs><clipPath id="3173f3db6e"><path d="M 75.40625 75.40625 L 299.65625 75.40625 L 299.65625 299.65625 L 75.40625 299.65625 Z M 75.40625 75.40625 " clip-rule="nonzero"/></clipPath></defs><g clip-path="url(#3173f3db6e)"><path fill="#000000" d="M 253.75 75.40625 L 121.316406 75.40625 C 96.003906 75.40625 75.40625 96.003906 75.40625 121.316406 L 75.40625 253.75 C 75.40625 279.0625 96.003906 299.65625 121.316406 299.65625 L 253.75 299.65625 C 279.0625 299.65625 299.65625 279.0625 299.65625 253.75 L 299.65625 121.316406 C 299.65625 96.003906 279.0625 75.40625 253.75 75.40625 Z M 286.464844 253.75 C 286.464844 271.789062 271.789062 286.464844 253.75 286.464844 L 121.316406 286.464844 C 103.277344 286.464844 88.597656 271.789062 88.597656 253.75 L 88.597656 121.316406 C 88.597656 103.277344 103.277344 88.597656 121.316406 88.597656 L 253.75 88.597656 C 271.789062 88.597656 286.464844 103.277344 286.464844 121.316406 Z M 286.464844 253.75 " fill-opacity="1" fill-rule="nonzero"/></g><path fill="#000000" d="M 143.5625 164.503906 L 117.179688 164.503906 C 113.539062 164.503906 110.585938 167.457031 110.585938 171.097656 L 110.585938 257.0625 C 110.585938 260.703125 113.539062 263.65625 117.179688 263.65625 L 143.5625 263.65625 C 147.203125 263.65625 150.15625 260.703125 150.15625 257.0625 L 150.15625 171.097656 C 150.15625 167.457031 147.203125 164.503906 143.5625 164.503906 Z M 136.964844 250.464844 L 123.773438 250.464844 L 123.773438 177.695312 L 136.964844 177.695312 Z M 136.964844 250.464844 " fill-opacity="1" fill-rule="nonzero"/><path fill="#000000" d="M 202.921875 176.257812 L 202.921875 171.097656 C 202.921875 167.457031 199.96875 164.503906 196.328125 164.503906 L 169.945312 164.503906 C 166.300781 164.503906 163.347656 167.457031 163.347656 171.097656 L 163.347656 257.0625 C 163.347656 260.703125 166.300781 263.65625 169.945312 263.65625 L 196.328125 263.65625 C 199.96875 263.65625 202.921875 260.703125 202.921875 257.0625 L 202.921875 225.621094 C 202.921875 219.5625 207.855469 214.628906 213.914062 214.628906 C 219.976562 214.628906 224.90625 219.5625 224.90625 225.621094 L 224.90625 257.0625 C 224.90625 260.703125 227.859375 263.65625 231.503906 263.65625 L 257.886719 263.65625 C 261.527344 263.65625 264.480469 260.703125 264.480469 257.0625 L 264.480469 225.621094 C 264.480469 193.410156 234.53125 169.210938 202.921875 176.257812 Z M 251.289062 250.464844 L 238.097656 250.464844 L 238.097656 225.621094 C 238.097656 212.289062 227.25 201.4375 213.914062 201.4375 C 200.578125 201.4375 189.730469 212.289062 189.730469 225.621094 L 189.730469 250.464844 L 176.539062 250.464844 L 176.539062 177.695312 L 189.730469 177.695312 L 189.730469 185.328125 C 189.730469 190.082031 194.621094 193.273438 198.972656 191.367188 C 223.429688 180.652344 251.289062 198.585938 251.289062 225.621094 Z M 251.289062 250.464844 " fill-opacity="1" fill-rule="nonzero"/><path fill="#000000" d="M 130.371094 111.410156 C 119.460938 111.410156 110.585938 120.285156 110.585938 131.195312 C 110.585938 142.105469 119.460938 150.980469 130.371094 150.980469 C 141.28125 150.980469 150.15625 142.105469 150.15625 131.195312 C 150.15625 120.285156 141.28125 111.410156 130.371094 111.410156 Z M 130.371094 137.789062 C 126.734375 137.789062 123.773438 134.832031 123.773438 131.195312 C 123.773438 127.558594 126.734375 124.601562 130.371094 124.601562 C 134.007812 124.601562 136.964844 127.558594 136.964844 131.195312 C 136.964844 134.832031 134.007812 137.789062 130.371094 137.789062 Z M 130.371094 137.789062 " fill-opacity="1" fill-rule="nonzero"/></svg>