<svg xmlns="http://www.w3.org/2000/svg" xmlns:xlink="http://www.w3.org/1999/xlink" width="500" zoomAndPan="magnify" viewBox="0 0 375 374.999991" height="500" preserveAspectRatio="xMidYMid meet" version="1.0"><defs><clipPath id="e5472867c3"><path d="M 63.382812 62.566406 L 314.632812 62.566406 L 314.632812 313.816406 L 63.382812 313.816406 Z M 63.382812 62.566406 " clip-rule="nonzero"/></clipPath></defs><g clip-path="url(#e5472867c3)"><path fill="#000000" d="M 272.949219 62.566406 L 105.070312 62.566406 C 103.703125 62.570312 102.34375 62.640625 100.984375 62.773438 C 99.625 62.910156 98.277344 63.113281 96.941406 63.378906 C 95.601562 63.648438 94.277344 63.980469 92.972656 64.378906 C 91.667969 64.777344 90.382812 65.234375 89.125 65.757812 C 87.863281 66.28125 86.632812 66.867188 85.429688 67.511719 C 84.226562 68.15625 83.054688 68.855469 81.921875 69.617188 C 80.785156 70.375 79.691406 71.1875 78.636719 72.054688 C 77.582031 72.917969 76.574219 73.835938 75.609375 74.800781 C 74.644531 75.765625 73.726562 76.777344 72.863281 77.832031 C 71.996094 78.886719 71.183594 79.980469 70.425781 81.117188 C 69.667969 82.25 68.964844 83.417969 68.320312 84.621094 C 67.675781 85.824219 67.09375 87.058594 66.570312 88.320312 C 66.046875 89.578125 65.585938 90.863281 65.191406 92.167969 C 64.792969 93.472656 64.460938 94.796875 64.191406 96.136719 C 63.925781 97.472656 63.722656 98.820312 63.589844 100.179688 C 63.453125 101.539062 63.386719 102.898438 63.382812 104.265625 L 63.382812 272.144531 C 63.386719 273.507812 63.453125 274.867188 63.589844 276.226562 C 63.726562 277.585938 63.925781 278.933594 64.195312 280.269531 C 64.460938 281.609375 64.796875 282.929688 65.191406 284.234375 C 65.589844 285.539062 66.050781 286.824219 66.574219 288.082031 C 67.097656 289.34375 67.679688 290.574219 68.324219 291.777344 C 68.96875 292.980469 69.671875 294.148438 70.429688 295.285156 C 71.1875 296.417969 72 297.511719 72.867188 298.566406 C 73.730469 299.621094 74.648438 300.632812 75.613281 301.597656 C 76.578125 302.5625 77.585938 303.476562 78.640625 304.34375 C 79.695312 305.207031 80.792969 306.019531 81.925781 306.777344 C 83.058594 307.535156 84.230469 308.238281 85.433594 308.882812 C 86.636719 309.523438 87.867188 310.109375 89.128906 310.632812 C 90.386719 311.152344 91.671875 311.613281 92.976562 312.011719 C 94.28125 312.410156 95.601562 312.742188 96.941406 313.007812 C 98.28125 313.277344 99.628906 313.476562 100.984375 313.613281 C 102.34375 313.746094 103.703125 313.816406 105.070312 313.816406 L 272.949219 313.816406 C 274.3125 313.816406 275.671875 313.746094 277.03125 313.613281 C 278.390625 313.476562 279.738281 313.277344 281.074219 313.007812 C 282.414062 312.742188 283.734375 312.410156 285.039062 312.011719 C 286.34375 311.613281 287.628906 311.152344 288.890625 310.632812 C 290.148438 310.109375 291.382812 309.523438 292.585938 308.882812 C 293.789062 308.238281 294.957031 307.535156 296.089844 306.777344 C 297.226562 306.019531 298.320312 305.207031 299.375 304.34375 C 300.429688 303.476562 301.4375 302.5625 302.402344 301.597656 C 303.367188 300.632812 304.285156 299.621094 305.148438 298.566406 C 306.015625 297.511719 306.828125 296.417969 307.585938 295.285156 C 308.347656 294.148438 309.046875 292.980469 309.691406 291.777344 C 310.335938 290.574219 310.917969 289.34375 311.441406 288.082031 C 311.964844 286.824219 312.425781 285.539062 312.824219 284.234375 C 313.222656 282.929688 313.554688 281.609375 313.820312 280.269531 C 314.089844 278.933594 314.289062 277.585938 314.425781 276.226562 C 314.5625 274.867188 314.632812 273.507812 314.632812 272.144531 L 314.632812 104.265625 C 314.632812 102.898438 314.5625 101.539062 314.425781 100.179688 C 314.292969 98.820312 314.089844 97.472656 313.824219 96.136719 C 313.554688 94.796875 313.222656 93.472656 312.824219 92.167969 C 312.429688 90.863281 311.96875 89.578125 311.445312 88.320312 C 310.921875 87.058594 310.339844 85.824219 309.695312 84.621094 C 309.050781 83.417969 308.351562 82.25 307.589844 81.117188 C 306.832031 79.980469 306.019531 78.886719 305.15625 77.832031 C 304.289062 76.777344 303.375 75.765625 302.410156 74.800781 C 301.445312 73.835938 300.433594 72.917969 299.378906 72.054688 C 298.324219 71.1875 297.230469 70.375 296.09375 69.617188 C 294.960938 68.855469 293.792969 68.15625 292.589844 67.511719 C 291.382812 66.867188 290.152344 66.28125 288.890625 65.757812 C 287.632812 65.234375 286.347656 64.777344 285.042969 64.378906 C 283.738281 63.980469 282.414062 63.648438 281.078125 63.378906 C 279.738281 63.113281 278.390625 62.910156 277.03125 62.773438 C 275.675781 62.640625 274.3125 62.570312 272.949219 62.566406 Z M 263.824219 256.214844 C 263.945312 256.414062 264.371094 257.308594 264.460938 257.527344 C 264.910156 258.355469 265.128906 259.238281 265.117188 260.179688 C 265.105469 261.121094 264.867188 262 264.394531 262.8125 C 263.925781 263.625 263.285156 264.265625 262.476562 264.738281 C 261.667969 265.207031 260.796875 265.449219 259.859375 265.457031 L 221.625 265.457031 C 220.683594 265.457031 219.800781 265.21875 218.984375 264.746094 C 218.167969 264.277344 217.523438 263.632812 217.050781 262.8125 L 189.007812 214.289062 L 160.976562 262.804688 C 160.503906 263.621094 159.859375 264.265625 159.042969 264.738281 C 158.226562 265.207031 157.34375 265.445312 156.398438 265.445312 L 118.167969 265.445312 C 117.941406 265.445312 117.714844 265.433594 117.488281 265.402344 C 117.265625 265.375 117.042969 265.332031 116.824219 265.273438 C 116.605469 265.214844 116.390625 265.144531 116.179688 265.058594 C 115.96875 264.972656 115.765625 264.875 115.566406 264.765625 C 115.371094 264.652344 115.179688 264.53125 115 264.394531 C 114.816406 264.257812 114.644531 264.113281 114.484375 263.953125 C 114.320312 263.796875 114.167969 263.628906 114.027344 263.453125 C 113.886719 263.277344 113.757812 263.089844 113.636719 262.894531 C 113.519531 262.703125 113.417969 262.5 113.324219 262.292969 C 113.234375 262.085938 113.15625 261.875 113.089844 261.65625 C 113.023438 261.441406 112.976562 261.21875 112.9375 260.996094 C 112.902344 260.773438 112.878906 260.546875 112.875 260.320312 C 112.867188 260.09375 112.871094 259.867188 112.894531 259.644531 C 112.917969 259.417969 112.953125 259.195312 113.003906 258.972656 C 113.054688 258.753906 113.117188 258.535156 113.195312 258.324219 C 113.273438 258.109375 113.363281 257.902344 113.46875 257.703125 C 113.71875 257.121094 113.917969 256.675781 114.167969 256.214844 L 153.441406 188.191406 L 114.167969 120.179688 C 114.039062 119.960938 113.578125 118.988281 113.46875 118.75 C 113.132812 117.894531 113.003906 117.011719 113.078125 116.09375 C 113.152344 115.179688 113.425781 114.328125 113.894531 113.539062 C 114.34375 112.777344 114.941406 112.164062 115.695312 111.699219 C 116.445312 111.234375 117.261719 110.976562 118.144531 110.917969 L 156.378906 110.917969 C 157.320312 110.917969 158.203125 111.15625 159.019531 111.628906 C 159.835938 112.097656 160.484375 112.742188 160.957031 113.5625 L 189.007812 162.117188 L 217.039062 113.5625 C 217.511719 112.742188 218.15625 112.097656 218.972656 111.628906 C 219.792969 111.15625 220.671875 110.917969 221.617188 110.917969 L 259.851562 110.917969 C 260.074219 110.917969 260.300781 110.933594 260.527344 110.960938 C 260.75 110.992188 260.972656 111.035156 261.191406 111.09375 C 261.410156 111.152344 261.625 111.222656 261.835938 111.308594 C 262.042969 111.394531 262.246094 111.492188 262.445312 111.601562 C 262.640625 111.714844 262.832031 111.839844 263.011719 111.972656 C 263.191406 112.109375 263.363281 112.257812 263.527344 112.414062 C 263.691406 112.570312 263.839844 112.738281 263.984375 112.917969 C 264.125 113.09375 264.253906 113.277344 264.371094 113.472656 C 264.488281 113.667969 264.589844 113.867188 264.683594 114.074219 C 264.773438 114.28125 264.851562 114.492188 264.917969 114.710938 C 264.980469 114.925781 265.03125 115.148438 265.066406 115.371094 C 265.101562 115.59375 265.125 115.820312 265.132812 116.046875 C 265.140625 116.273438 265.132812 116.496094 265.109375 116.722656 C 265.089844 116.949219 265.054688 117.171875 265.003906 117.390625 C 264.953125 117.613281 264.886719 117.828125 264.808594 118.042969 C 264.730469 118.253906 264.640625 118.460938 264.535156 118.664062 C 264.332031 119.222656 264.074219 119.757812 263.769531 120.269531 L 224.566406 188.191406 Z M 263.824219 256.214844 " fill-opacity="1" fill-rule="nonzero"/></g></svg>